<?xml version="1.0" encoding="utf-8"?>
<!-- Generator: Adobe Illustrator 15.1.0, SVG Export Plug-In . SVG Version: 6.00 Build 0)  -->
<!DOCTYPE svg PUBLIC "-//W3C//DTD SVG 1.1//EN" "http://www.w3.org/Graphics/SVG/1.1/DTD/svg11.dtd">
<svg version="1.1" id="Layer_1" xmlns="http://www.w3.org/2000/svg" xmlns:xlink="http://www.w3.org/1999/xlink" x="0px" y="0px"
	 width="11px" height="11px" viewBox="0 0 11 11" enable-background="new 0 0 11 11" xml:space="preserve">
<path d="M10,1.376v8.25c0,0.101-0.037,0.188-0.111,0.264C9.813,9.964,9.727,10.001,9.625,10H6.624C6.522,10,6.435,9.963,6.36,9.89
	C6.286,9.815,6.249,9.728,6.249,9.626v-8.25c0-0.103,0.037-0.19,0.111-0.265S6.522,1,6.624,1h3.001c0.102,0,0.188,0.037,0.264,0.111
	C9.963,1.186,10,1.273,10,1.376z M4.75,1.376v8.25c0,0.101-0.037,0.188-0.111,0.264C4.564,9.964,4.477,10.001,4.375,10h-3
	c-0.102,0-0.19-0.037-0.264-0.11C1.036,9.815,0.999,9.728,0.999,9.626v-8.25c0-0.103,0.037-0.19,0.111-0.265S1.272,1,1.375,1h3
	c0.101,0,0.188,0.037,0.264,0.111C4.713,1.186,4.75,1.273,4.75,1.376z"/>
</svg>
